<svg width="211" height="52" viewBox="0 0 211 52" fill="none" xmlns="http://www.w3.org/2000/svg">
<g clip-path="url(#clip0_62_1845)">
<path d="M17.3528 2.9228L19.8554 4.34721L22.3579 5.77161L24.833 4.31021L27.308 2.84881L24.8055 1.4244L22.3029 0L19.8279 1.4614L17.3528 2.9228ZM10.0194 21.7638L10.0377 24.6496L10.056 27.5354L10.0744 30.4212L10.0927 33.307L12.5952 34.7314L15.0978 36.1558L17.6003 37.5802L20.1029 39.0046L22.6054 40.429L25.0805 38.9676L27.5555 37.5062L30.0306 36.0448L32.5056 34.5834L34.9806 33.122L34.9623 30.2362L34.944 27.3504L34.9256 24.4646L34.9073 21.5788L37.3824 20.1174L39.8574 18.656L39.8757 21.5418L39.8941 24.4276L39.9124 27.3134L39.9307 30.1992L39.9491 33.085L39.9674 35.9708L37.4924 37.4322L35.0173 38.8936L32.5423 40.355L30.0672 41.8164L27.5922 43.2778L25.1171 44.7392L22.6421 46.2006L20.1395 44.7762L17.637 43.3518L15.1344 41.9274L12.6502 40.5215L10.1477 39.0971L7.64514 37.6727L5.14259 36.2483L5.12426 33.3625L5.10593 30.4767L5.08759 27.5909L5.06926 24.7051L5.04176 21.8008L5.02343 18.915L7.51681 20.3301L10.0194 21.7638ZM5.18843 42.0199L7.69098 43.4443L10.1935 44.8687L12.6961 46.2931L15.1986 47.7175L17.7012 49.1419L20.2037 50.5663L22.7063 51.9907L25.1813 50.5293L27.6563 49.0679L30.1314 47.6065L32.6064 46.1451L35.0815 44.6837L37.5565 43.2223L40.0316 41.7609L42.5066 40.2995L44.9817 38.8381L44.9633 35.9523L44.945 33.0665L44.9267 30.1807L44.9083 27.2949L44.89 24.4091L44.8717 21.5233L44.8533 18.6375L44.835 15.7517L44.8167 12.8659L42.3141 11.4415L39.8391 12.9029L37.364 14.3643L34.889 15.8257L32.4139 17.2871L29.9114 15.8627L27.4088 14.4383L29.8839 12.9769L32.3589 11.5155L34.834 10.0541L37.309 8.59267L34.8065 7.16827L32.3039 5.74386L29.8289 7.20527L27.3538 8.66667L24.8788 10.1281L22.4037 11.5895L19.892 10.1281L17.3895 8.70366L14.8869 7.27926L12.3844 5.85486L9.90935 7.31626L7.4343 8.77766L9.93685 10.2021L12.4394 11.6265L14.9419 13.0509L17.4445 14.4753L19.947 15.8997L22.4496 17.3241L24.9521 18.7485L27.4547 20.1729L29.9572 21.5973L29.9756 24.4831L29.9939 27.3689L30.0122 30.2547L27.5372 31.7161L25.0621 33.1775L22.5871 34.6389L20.0845 33.2145L17.5637 31.8179L15.0611 30.3935L15.0428 27.5076L15.0244 24.6218L17.527 26.0462L20.0295 27.4706L22.5321 28.8951L25.0071 27.4337L24.9888 24.5478L22.4862 23.1234L19.9837 21.699L17.4812 20.2561L14.9786 18.8317L12.4761 17.4073L9.97352 15.9829L7.47097 14.5585L4.97759 13.1341L2.47505 11.7097L0 13.1711L0.0183337 16.0569L0.0366673 18.9427L0.055001 21.8285L0.0733347 24.7143L0.0916684 27.6001L0.110002 30.4859L0.146669 33.3903L0.165003 36.2761L0.183337 39.1619L2.68588 40.5863L5.18843 42.0199Z" fill="#E5A40F"/>
</g>
<g clip-path="url(#clip1_62_1845)">
<path d="M59.9564 41.2051H53.1875L63.5013 11.1445H71.6414L81.9406 41.2051H75.1717L67.688 18.0138H67.4547L59.9564 41.2051ZM59.5333 29.3893H75.5218V34.3505H59.5333V29.3893ZM85.4198 41.2051V18.6597H91.4447V22.5934H91.6781C92.0866 21.1941 92.7723 20.1373 93.735 19.4229C94.6979 18.6988 95.8066 18.3368 97.0611 18.3368C97.3723 18.3368 97.7079 18.3563 98.0677 18.3955C98.4275 18.4346 98.7436 18.4884 99.0159 18.5569V24.1052C98.7242 24.0171 98.3206 23.9389 97.8051 23.8704C97.2896 23.8019 96.818 23.7676 96.3901 23.7676C95.4759 23.7676 94.6589 23.9683 93.9392 24.3694C93.2294 24.7608 92.6652 25.3088 92.2471 26.0134C91.8386 26.7179 91.6343 27.5301 91.6343 28.4499V41.2051H85.4198ZM102.229 41.2051V18.6597H108.152V22.6374H108.414C108.881 21.3164 109.659 20.2743 110.748 19.511C111.838 18.7478 113.141 18.3661 114.658 18.3661C116.195 18.3661 117.503 18.7526 118.582 19.5257C119.662 20.289 120.381 21.3262 120.741 22.6374H120.975C121.432 21.3457 122.258 20.3134 123.455 19.5404C124.661 18.7575 126.085 18.3661 127.729 18.3661C129.82 18.3661 131.517 19.0364 132.82 20.377C134.133 21.7078 134.79 23.5964 134.79 26.0427V41.2051H128.59V27.2757C128.59 26.0232 128.259 25.0838 127.598 24.4575C126.936 23.8312 126.11 23.5181 125.118 23.5181C123.99 23.5181 123.109 23.8802 122.477 24.6043C121.845 25.3186 121.529 26.2629 121.529 27.4372V41.2051H115.504V27.1436C115.504 26.0379 115.188 25.1572 114.556 24.5015C113.933 23.8459 113.112 23.5181 112.09 23.5181C111.4 23.5181 110.778 23.6943 110.223 24.0466C109.679 24.389 109.246 24.8734 108.925 25.4997C108.604 26.1161 108.443 26.8402 108.443 27.672V41.2051H102.229ZM146.088 41.6308C144.658 41.6308 143.384 41.3813 142.266 40.8823C141.148 40.3734 140.263 39.6248 139.611 38.6365C138.969 37.6384 138.648 36.3956 138.648 34.9082C138.648 33.6558 138.876 32.6038 139.334 31.7525C139.791 30.9011 140.414 30.2162 141.201 29.6975C141.989 29.179 142.883 28.7875 143.885 28.5234C144.897 28.2591 145.957 28.0732 147.065 27.9656C148.369 27.8286 149.419 27.7014 150.217 27.5839C151.014 27.4567 151.593 27.2708 151.952 27.0261C152.313 26.7816 152.492 26.4195 152.492 25.94V25.852C152.492 24.9223 152.2 24.2031 151.617 23.6943C151.043 23.1854 150.226 22.931 149.166 22.931C148.047 22.931 147.158 23.1805 146.497 23.6796C145.835 24.1688 145.398 24.7853 145.184 25.529L139.436 25.0593C139.728 23.6893 140.301 22.5053 141.157 21.5073C142.013 20.4994 143.117 19.7263 144.469 19.1881C145.831 18.6401 147.406 18.3661 149.195 18.3661C150.44 18.3661 151.632 18.5129 152.769 18.8065C153.917 19.1 154.933 19.5551 155.819 20.1716C156.713 20.788 157.418 21.5806 157.933 22.5493C158.449 23.5084 158.707 24.6581 158.707 25.9987V41.2051H152.813V38.0787H152.638C152.278 38.7832 151.797 39.4046 151.194 39.9428C150.591 40.4712 149.866 40.8871 149.02 41.1904C148.174 41.4841 147.197 41.6308 146.088 41.6308ZM147.868 37.3154C148.782 37.3154 149.589 37.1344 150.289 36.7724C150.989 36.4005 151.539 35.9015 151.938 35.2752C152.336 34.649 152.536 33.9395 152.536 33.1469V30.7544C152.341 30.8816 152.074 30.999 151.734 31.1067C151.403 31.2045 151.029 31.2975 150.61 31.3855C150.192 31.4638 149.774 31.5372 149.356 31.6057C148.938 31.6645 148.559 31.7183 148.218 31.7671C147.488 31.8748 146.851 32.0461 146.307 32.2809C145.762 32.5158 145.339 32.8338 145.037 33.235C144.736 33.6264 144.586 34.1157 144.586 34.7028C144.586 35.5541 144.892 36.2048 145.504 36.655C146.127 37.0953 146.915 37.3154 147.868 37.3154ZM171.785 41.5721C170.083 41.5721 168.542 41.1318 167.161 40.2511C165.789 39.3606 164.7 38.0543 163.892 36.332C163.095 34.6 162.696 32.4766 162.696 29.9618C162.696 27.3784 163.11 25.2305 163.937 23.5181C164.763 21.7959 165.862 20.5091 167.233 19.6578C168.614 18.7967 170.126 18.3661 171.77 18.3661C173.025 18.3661 174.07 18.5814 174.907 19.0119C175.753 19.4327 176.434 19.9612 176.949 20.5972C177.474 21.2234 177.873 21.8399 178.146 22.4466H178.335V11.1445H184.535V41.2051H178.408V37.5944H178.146C177.853 38.2206 177.44 38.842 176.905 39.4585C176.38 40.0651 175.694 40.5691 174.848 40.9703C174.012 41.3715 172.991 41.5721 171.785 41.5721ZM173.754 36.5962C174.756 36.5962 175.602 36.3222 176.292 35.7743C176.993 35.2165 177.528 34.4386 177.898 33.4404C178.277 32.4424 178.466 31.273 178.466 29.9324C178.466 28.5918 178.281 27.4274 177.912 26.439C177.542 25.4507 177.007 24.6875 176.307 24.1493C175.607 23.611 174.756 23.342 173.754 23.342C172.733 23.342 171.872 23.6208 171.172 24.1786C170.472 24.7363 169.942 25.5094 169.582 26.4978C169.223 27.486 169.042 28.631 169.042 29.9324C169.042 31.2436 169.223 32.4032 169.582 33.4111C169.952 34.4092 170.482 35.192 171.172 35.7596C171.872 36.3174 172.733 36.5962 173.754 36.5962ZM199.769 41.6455C197.502 41.6455 195.543 41.1611 193.889 40.1924C192.246 39.2138 190.977 37.8536 190.082 36.1118C189.187 34.3603 188.739 32.3298 188.739 30.0205C188.739 27.6916 189.187 25.6562 190.082 23.9145C190.977 22.1629 192.246 20.8027 193.889 19.8339C195.543 18.8554 197.502 18.3661 199.769 18.3661C202.034 18.3661 203.989 18.8554 205.633 19.8339C207.286 20.8027 208.56 22.1629 209.455 23.9145C210.35 25.6562 210.797 27.6916 210.797 30.0205C210.797 32.3298 210.35 34.3603 209.455 36.1118C208.56 37.8536 207.286 39.2138 205.633 40.1924C203.989 41.1611 202.034 41.6455 199.769 41.6455ZM199.798 36.8017C200.829 36.8017 201.689 36.5082 202.38 35.9211C203.07 35.3241 203.591 34.5119 203.941 33.4845C204.3 32.457 204.48 31.2877 204.48 29.9765C204.48 28.6652 204.3 27.4958 203.941 26.4684C203.591 25.4409 203.07 24.6287 202.38 24.0319C201.689 23.4349 200.829 23.1365 199.798 23.1365C198.757 23.1365 197.881 23.4349 197.172 24.0319C196.471 24.6287 195.941 25.4409 195.582 26.4684C195.232 27.4958 195.056 28.6652 195.056 29.9765C195.056 31.2877 195.232 32.457 195.582 33.4845C195.941 34.5119 196.471 35.3241 197.172 35.9211C197.881 36.5082 198.757 36.8017 199.798 36.8017Z" fill="#1F4941"/>
</g>
<defs>
<clipPath id="clip0_62_1845">
<rect width="45" height="52" fill="white"/>
</clipPath>
<clipPath id="clip1_62_1845">
<rect width="158" height="31" fill="white" transform="translate(53 11)"/>
</clipPath>
</defs>
</svg>
