<svg width="389" height="444" viewBox="0 0 389 444" fill="none" xmlns="http://www.w3.org/2000/svg">
<mask id="path-1-inside-1_62_3102" fill="white">
<path d="M150.006 24.9562L171.639 37.1185L193.272 49.2807L214.667 36.8026L236.063 24.3244L214.429 12.1622L192.796 0L171.401 12.4781L150.006 24.9562ZM86.6117 185.829L86.7702 210.47L86.9287 235.11L87.0872 259.75L87.2457 284.391L108.879 296.553L130.512 308.715L152.145 320.877L173.778 333.04L195.411 345.202L216.807 332.724L238.202 320.245L259.598 307.767L280.993 295.289L302.388 282.811L302.23 258.171L302.071 233.53L301.913 208.89L301.754 184.25L323.15 171.772L344.545 159.293L344.704 183.934L344.862 208.574L345.021 233.215L345.179 257.855L345.338 282.495L345.496 307.136L324.101 319.614L302.705 332.092L281.31 344.57L259.914 357.048L238.519 369.526L217.124 382.004L195.728 394.482L174.095 382.32L152.462 370.158L130.829 357.996L109.354 345.991L87.7211 333.829L66.088 321.667L44.4549 309.505L44.2964 284.864L44.1379 260.224L43.9794 235.584L43.8209 210.943L43.5832 186.145L43.4247 161.505L64.9786 173.588L86.6117 185.829ZM44.8511 358.785L66.4842 370.948L88.1173 383.11L109.75 395.272L131.384 407.434L153.017 419.597L174.65 431.759L196.283 443.921L217.678 431.443L239.074 418.965L260.469 406.487L281.865 394.009L303.26 381.53L324.655 369.052L346.051 356.574L367.446 344.096L388.842 331.618L388.683 306.978L388.525 282.337L388.366 257.697L388.208 233.057L388.049 208.416L387.891 183.776L387.732 159.136L387.574 134.495L387.415 109.855L365.782 97.6926L344.387 110.171L322.991 122.649L301.596 135.127L280.2 147.605L258.567 135.443L236.934 123.281L258.33 110.803L279.725 98.3244L301.12 85.8463L322.516 73.3682L300.883 61.206L279.25 49.0438L257.854 61.5219L236.459 74L215.063 86.4781L193.668 98.9563L171.956 86.4781L150.322 74.3159L128.689 62.1537L107.056 49.9915L85.6608 62.4696L64.2654 74.9477L85.8986 87.1099L107.532 99.2721L129.165 111.434L150.798 123.597L172.431 135.759L194.064 147.921L215.697 160.083L237.33 172.245L258.964 184.408L259.122 209.048L259.281 233.688L259.439 258.329L238.044 270.807L216.648 283.285L195.253 295.763L173.62 283.601L151.828 271.676L130.195 259.513L130.036 234.873L129.878 210.233L151.511 222.395L173.144 234.557L194.777 246.719L216.173 234.241L216.014 209.601L194.381 197.439L172.748 185.276L151.115 172.956L129.482 160.794L107.849 148.632L86.2155 136.47L64.5824 124.307L43.0285 112.145L21.3954 99.9829L0 112.461L0.158484 137.101L0.316969 161.742L0.475453 186.382L0.633938 211.022L0.792422 235.663L0.950907 260.303L1.26788 285.101L1.42636 309.742L1.58484 334.382L23.218 346.544L44.8511 358.785Z"/>
</mask>
<path d="M150.006 24.9562L171.639 37.1185L193.272 49.2807L214.667 36.8026L236.063 24.3244L214.429 12.1622L192.796 0L171.401 12.4781L150.006 24.9562ZM86.6117 185.829L86.7702 210.47L86.9287 235.11L87.0872 259.75L87.2457 284.391L108.879 296.553L130.512 308.715L152.145 320.877L173.778 333.04L195.411 345.202L216.807 332.724L238.202 320.245L259.598 307.767L280.993 295.289L302.388 282.811L302.23 258.171L302.071 233.53L301.913 208.89L301.754 184.25L323.15 171.772L344.545 159.293L344.704 183.934L344.862 208.574L345.021 233.215L345.179 257.855L345.338 282.495L345.496 307.136L324.101 319.614L302.705 332.092L281.31 344.57L259.914 357.048L238.519 369.526L217.124 382.004L195.728 394.482L174.095 382.32L152.462 370.158L130.829 357.996L109.354 345.991L87.7211 333.829L66.088 321.667L44.4549 309.505L44.2964 284.864L44.1379 260.224L43.9794 235.584L43.8209 210.943L43.5832 186.145L43.4247 161.505L64.9786 173.588L86.6117 185.829ZM44.8511 358.785L66.4842 370.948L88.1173 383.11L109.75 395.272L131.384 407.434L153.017 419.597L174.65 431.759L196.283 443.921L217.678 431.443L239.074 418.965L260.469 406.487L281.865 394.009L303.26 381.53L324.655 369.052L346.051 356.574L367.446 344.096L388.842 331.618L388.683 306.978L388.525 282.337L388.366 257.697L388.208 233.057L388.049 208.416L387.891 183.776L387.732 159.136L387.574 134.495L387.415 109.855L365.782 97.6926L344.387 110.171L322.991 122.649L301.596 135.127L280.2 147.605L258.567 135.443L236.934 123.281L258.33 110.803L279.725 98.3244L301.12 85.8463L322.516 73.3682L300.883 61.206L279.25 49.0438L257.854 61.5219L236.459 74L215.063 86.4781L193.668 98.9563L171.956 86.4781L150.322 74.3159L128.689 62.1537L107.056 49.9915L85.6608 62.4696L64.2654 74.9477L85.8986 87.1099L107.532 99.2721L129.165 111.434L150.798 123.597L172.431 135.759L194.064 147.921L215.697 160.083L237.33 172.245L258.964 184.408L259.122 209.048L259.281 233.688L259.439 258.329L238.044 270.807L216.648 283.285L195.253 295.763L173.62 283.601L151.828 271.676L130.195 259.513L130.036 234.873L129.878 210.233L151.511 222.395L173.144 234.557L194.777 246.719L216.173 234.241L216.014 209.601L194.381 197.439L172.748 185.276L151.115 172.956L129.482 160.794L107.849 148.632L86.2155 136.47L64.5824 124.307L43.0285 112.145L21.3954 99.9829L0 112.461L0.158484 137.101L0.316969 161.742L0.475453 186.382L0.633938 211.022L0.792422 235.663L0.950907 260.303L1.26788 285.101L1.42636 309.742L1.58484 334.382L23.218 346.544L44.8511 358.785Z" stroke="#575757" stroke-width="4" mask="url(#path-1-inside-1_62_3102)"/>
</svg>
